<svg width="200" height="25" viewBox="0 0 200 25" fill="none" xmlns="http://www.w3.org/2000/svg">
<path d="M10.8242 20.2755H14.3227L17.8213 4.86108H14.3227L10.8242 20.2755Z" fill="#075FE4"/>
<path d="M7.51625 4.92017L0 12.567L0.0013993 12.5684L0 12.5698L7.51625 20.2166L9.7959 17.8973L4.55791 12.5684L9.7959 7.23942L7.51625 4.92017Z" fill="#075FE4"/>
<path d="M2.27971 10.2507L0.00133324 12.5687L2.27979 14.8866L4.55816 12.5686L2.27971 10.2507Z" fill="#075FE4"/>
<path d="M28.6686 12.5669L21.1523 4.92017L18.8726 7.23939L24.1106 12.5683L18.8726 17.8973L21.1523 20.2165L28.6686 12.5697L28.6672 12.5683L28.6686 12.5669Z" fill="#075FE4"/>
<path d="M26.3891 10.2503L24.1108 12.5683L26.3892 14.8862L28.6676 12.5682L26.3891 10.2503Z" fill="#075FE4"/>
<path d="M48.9887 9.82576C48.8675 9.42631 48.7003 9.06867 48.487 8.75305C48.2785 8.43249 48.0264 8.15874 47.7306 7.93187C47.4398 7.70499 47.1053 7.53478 46.7272 7.42138C46.349 7.30298 45.9369 7.24381 45.4909 7.24381C44.691 7.24381 43.9784 7.44853 43.353 7.85784C42.7276 8.26721 42.2355 8.86895 41.8767 9.66305C41.5229 10.4521 41.3459 11.4139 41.3459 12.5483C41.3459 13.6926 41.5229 14.6617 41.8767 15.4558C42.2306 16.2499 42.7227 16.8541 43.353 17.2684C43.9832 17.6778 44.7152 17.8824 45.5491 17.8824C46.3054 17.8824 46.9599 17.7344 47.5125 17.4385C48.07 17.1426 48.499 16.7234 48.7997 16.1808C49.1002 15.6334 49.2505 14.9922 49.2505 14.2573L49.8614 14.3535H45.8182V12.208H51.8612V14.028C51.8612 15.3251 51.5896 16.4471 51.0467 17.3942C50.5037 18.3411 49.7571 19.0711 48.8069 19.584C47.8567 20.092 46.7659 20.346 45.5345 20.346C44.1626 20.346 42.9578 20.0328 41.9204 19.4064C40.8878 18.7751 40.0805 17.88 39.4988 16.7209C38.9219 15.5569 38.6334 14.176 38.6334 12.5779C38.6334 11.3548 38.8031 10.2623 39.1425 9.30055C39.4867 8.33874 39.9666 7.52249 40.5823 6.85171C41.198 6.17601 41.9204 5.66307 42.7494 5.31289C43.5784 4.95777 44.4801 4.78021 45.4545 4.78021C46.2787 4.78021 47.0471 4.90352 47.7597 5.15012C48.4724 5.3918 49.105 5.73705 49.6577 6.18587C50.2152 6.6347 50.6734 7.16735 51.0321 7.78388C51.3909 8.40041 51.626 9.08103 51.7375 9.82576H48.9887ZM57.5678 20.3683C56.86 20.3683 56.2225 20.24 55.6553 19.9835C55.0929 19.7221 54.6469 19.3374 54.3173 18.8294C53.9924 18.3214 53.83 17.695 53.83 16.9503C53.83 16.3091 53.9463 15.7789 54.179 15.3596C54.4117 14.9404 54.7293 14.605 55.1317 14.3535C55.5341 14.1019 55.9874 13.9121 56.4915 13.7838C57.0006 13.6507 57.5266 13.5545 58.0696 13.4953C58.724 13.4262 59.2549 13.3646 59.6621 13.3103C60.0693 13.2512 60.365 13.1624 60.5493 13.044C60.7384 12.9207 60.8329 12.7308 60.8329 12.4744V12.4299C60.8329 11.8726 60.6705 11.441 60.3457 11.1353C60.0209 10.8295 59.553 10.6766 58.9422 10.6766C58.2974 10.6766 57.7859 10.8196 57.4078 11.1057C57.0345 11.3917 56.7825 11.7296 56.6515 12.1192L54.1936 11.7641C54.3875 11.0736 54.7075 10.4966 55.1535 10.0329C55.5995 9.56437 56.1449 9.21423 56.7897 8.98242C57.4345 8.74569 58.1471 8.62728 58.9276 8.62728C59.4658 8.62728 60.0015 8.69138 60.5347 8.81965C61.0681 8.94784 61.5552 9.15992 61.9964 9.45589C62.4376 9.74687 62.7915 10.1439 63.0581 10.647C63.3296 11.1501 63.4653 11.7789 63.4653 12.5335V20.1389H60.9347V18.5778H60.8474C60.6874 18.8935 60.462 19.1894 60.1711 19.4656C59.8851 19.7369 59.524 19.9564 59.0876 20.1241C58.6562 20.2869 58.1496 20.3683 57.5678 20.3683ZM58.2513 18.4003C58.7798 18.4003 59.238 18.2942 59.6257 18.0822C60.0136 17.8652 60.3117 17.5791 60.5202 17.224C60.7335 16.8689 60.8402 16.4817 60.8402 16.0625V14.7234C60.7577 14.7924 60.6172 14.8566 60.4184 14.9158C60.2245 14.9749 60.0063 15.0267 59.764 15.0711C59.5215 15.1155 59.2816 15.155 59.044 15.1895C58.8065 15.224 58.6004 15.2536 58.4259 15.2783C58.0332 15.3325 57.6817 15.4213 57.3715 15.5446C57.0612 15.6679 56.8164 15.8405 56.637 16.0625C56.4576 16.2795 56.3679 16.5606 56.3679 16.9059C56.3679 17.3991 56.5448 17.7715 56.8988 18.023C57.2527 18.2745 57.7035 18.4003 58.2513 18.4003ZM66.2287 20.1389V4.98737H68.8614V10.6544H68.97C69.1058 10.3782 69.2976 10.0847 69.5447 9.77402C69.7918 9.45833 70.1263 9.18958 70.5481 8.96763C70.97 8.74069 71.5078 8.62728 72.1625 8.62728C73.0253 8.62728 73.8034 8.85166 74.4969 9.30055C75.1952 9.74444 75.7474 10.4028 76.1549 11.2758C76.5672 12.1439 76.7727 13.2092 76.7727 14.4719C76.7727 15.7197 76.572 16.7801 76.1693 17.6531C75.7672 18.5261 75.2191 19.1919 74.5263 19.6506C73.8328 20.1093 73.0471 20.3386 72.17 20.3386C71.5297 20.3386 70.9993 20.2301 70.5775 20.0131C70.1556 19.7961 69.8164 19.5347 69.559 19.2289C69.3072 18.9182 69.1106 18.6247 68.97 18.3485H68.8177V20.1389H66.2287ZM68.8102 14.4571C68.8102 15.1919 68.9119 15.8356 69.1154 16.388C69.3242 16.9404 69.6225 17.3719 70.0102 17.6827C70.4027 17.9885 70.8778 18.1414 71.4355 18.1414C72.0171 18.1414 72.5044 17.9835 72.8969 17.6679C73.2894 17.3473 73.5857 16.9108 73.7843 16.3584C73.9877 15.8011 74.0894 15.1673 74.0894 14.4571C74.0894 13.7518 73.9904 13.1254 73.7918 12.5779C73.5925 12.0305 73.2969 11.6014 72.9044 11.2906C72.5119 10.9799 72.0218 10.8246 71.4355 10.8246C70.873 10.8246 70.3952 10.975 70.0027 11.2758C69.6102 11.5767 69.3119 11.9984 69.1085 12.5409C68.9099 13.0835 68.8102 13.7221 68.8102 14.4571ZM79.0109 20.1389V8.77527H81.5631V10.6692H81.6799C81.8833 10.0132 82.2328 9.5077 82.727 9.15256C83.2259 8.79249 83.7959 8.61249 84.4362 8.61249C84.5816 8.61249 84.744 8.61985 84.9229 8.63464C85.1072 8.64458 85.2601 8.6618 85.3809 8.68645V11.1501C85.2696 11.1106 85.0928 11.0761 84.8505 11.0465C84.613 11.0119 84.3822 10.9947 84.1597 10.9947C83.6799 10.9947 83.2478 11.1008 82.8648 11.3128C82.4867 11.52 82.1891 11.8085 81.9706 12.1784C81.7522 12.5483 81.6437 12.9749 81.6437 13.4583V20.1389H79.0109ZM87.1304 20.1389V8.77527H89.7625V20.1389H87.1304ZM88.4539 7.16242C88.0369 7.16242 87.6778 7.02187 87.3775 6.74074C87.0764 6.45467 86.9263 6.1119 86.9263 5.71239C86.9263 5.30796 87.0764 4.96517 87.3775 4.68404C87.6778 4.39798 88.0369 4.25494 88.4539 4.25494C88.8751 4.25494 89.2341 4.39798 89.5297 4.68404C89.8307 4.96517 89.9809 5.30796 89.9809 5.71239C89.9809 6.1119 89.8307 6.45467 89.5297 6.74074C89.2341 7.02187 88.8751 7.16242 88.4539 7.16242ZM97.4143 20.3608C96.2949 20.3608 95.3276 20.1241 94.5126 19.6506C93.7031 19.1722 93.0805 18.4964 92.6444 17.6235C92.2075 16.7455 91.9898 15.7123 91.9898 14.5237C91.9898 13.3547 92.2075 12.3289 92.6444 11.446C93.0853 10.5582 93.701 9.8677 94.4915 9.37451C95.2812 8.87638 96.2095 8.62728 97.2764 8.62728C97.9645 8.62728 98.6143 8.74069 99.2253 8.96763C99.841 9.18958 100.384 9.53478 100.854 10.0033C101.329 10.4719 101.702 11.0687 101.974 11.7937C102.246 12.5138 102.381 13.372 102.381 14.3683V15.1895H93.2259V13.3843H99.858C99.8532 12.8714 99.744 12.4151 99.5304 12.0157C99.3174 11.6112 99.0191 11.2931 98.6362 11.0613C98.258 10.8295 97.8171 10.7136 97.3126 10.7136C96.7747 10.7136 96.3017 10.8467 95.8949 11.113C95.4874 11.3745 95.17 11.7197 94.942 12.1488C94.7188 12.573 94.6048 13.0391 94.6 13.5471V15.1229C94.6 15.7838 94.7188 16.351 94.9563 16.8245C95.1938 17.293 95.5263 17.6531 95.9529 17.9046C96.3795 18.1512 96.8785 18.2745 97.4505 18.2745C97.8341 18.2745 98.1802 18.2203 98.4908 18.1118C98.8007 17.9983 99.0703 17.8331 99.2976 17.6161C99.5256 17.3991 99.6976 17.1303 99.8143 16.8097L102.272 17.0908C102.117 17.7517 101.821 18.3288 101.385 18.822C100.954 19.3103 100.401 19.6901 99.727 19.9613C99.0532 20.2276 98.2819 20.3608 97.4143 20.3608ZM107.241 4.98737V20.1389H104.608V4.98737H107.241ZM127.891 10.0995H125.171C125.094 9.64576 124.951 9.24381 124.743 8.8936C124.534 8.53853 124.274 8.23763 123.965 7.99103C123.654 7.74444 123.3 7.55951 122.902 7.43617C122.51 7.30791 122.086 7.24381 121.63 7.24381C120.82 7.24381 120.103 7.45096 119.478 7.86527C118.852 8.27465 118.362 8.87638 118.009 9.67041C117.655 10.4596 117.478 11.4238 117.478 12.5631C117.478 13.7221 117.655 14.6987 118.009 15.4928C118.367 16.2819 118.857 16.8787 119.478 17.2832C120.103 17.6827 120.818 17.8824 121.623 17.8824C122.069 17.8824 122.486 17.8233 122.874 17.7049C123.266 17.5816 123.618 17.4015 123.928 17.1648C124.243 16.928 124.507 16.6371 124.721 16.2918C124.939 15.9466 125.089 15.552 125.171 15.1081L127.891 15.1229C127.789 15.843 127.569 16.5187 127.229 17.15C126.895 17.7813 126.456 18.3387 125.913 18.822C125.37 19.3004 124.735 19.6753 124.008 19.9465C123.281 20.2128 122.474 20.346 121.586 20.346C120.277 20.346 119.109 20.0378 118.081 19.4212C117.053 18.8047 116.244 17.9145 115.653 16.7505C115.061 15.5865 114.765 14.1908 114.765 12.5631C114.765 10.9306 115.063 9.53478 115.66 8.37576C116.256 7.21173 117.068 6.32151 118.096 5.70499C119.124 5.08847 120.287 4.78021 121.586 4.78021C122.416 4.78021 123.186 4.89859 123.899 5.13533C124.612 5.37208 125.246 5.71979 125.804 6.17848C126.362 6.63224 126.82 7.18958 127.179 7.85048C127.542 8.50645 127.78 9.2561 127.891 10.0995ZM135.117 20.3608C134.027 20.3608 133.081 20.1167 132.282 19.6284C131.482 19.1401 130.861 18.457 130.42 17.5791C129.984 16.7012 129.766 15.6753 129.766 14.5014C129.766 13.3276 129.984 12.2992 130.42 11.4164C130.861 10.5335 131.482 9.84798 132.282 9.35971C133.081 8.87145 134.027 8.62728 135.117 8.62728C136.208 8.62728 137.154 8.87145 137.954 9.35971C138.754 9.84798 139.372 10.5335 139.808 11.4164C140.249 12.2992 140.47 13.3276 140.47 14.5014C140.47 15.6753 140.249 16.7012 139.808 17.5791C139.372 18.457 138.754 19.1401 137.954 19.6284C137.154 20.1167 136.208 20.3608 135.117 20.3608ZM135.132 18.2153C135.724 18.2153 136.218 18.0501 136.616 17.7196C137.013 17.3843 137.309 16.9355 137.503 16.3732C137.702 15.811 137.801 15.1846 137.801 14.494C137.801 13.7986 137.702 13.1698 137.503 12.6075C137.309 12.0403 137.013 11.589 136.616 11.2537C136.218 10.9183 135.724 10.7505 135.132 10.7505C134.526 10.7505 134.022 10.9183 133.62 11.2537C133.222 11.589 132.924 12.0403 132.725 12.6075C132.531 13.1698 132.434 13.7986 132.434 14.494C132.434 15.1846 132.531 15.811 132.725 16.3732C132.924 16.9355 133.222 17.3843 133.62 17.7196C134.022 18.0501 134.526 18.2153 135.132 18.2153ZM142.704 20.1389V8.77527H145.257V10.6692H145.373C145.577 10.0132 145.926 9.5077 146.42 9.15256C146.919 8.79249 147.489 8.61249 148.129 8.61249C148.274 8.61249 148.437 8.61985 148.616 8.63464C148.801 8.64458 148.953 8.6618 149.074 8.68645V11.1501C148.963 11.1106 148.786 11.0761 148.543 11.0465C148.306 11.0119 148.076 10.9947 147.853 10.9947C147.373 10.9947 146.941 11.1008 146.558 11.3128C146.18 11.52 145.882 11.8085 145.664 12.1784C145.446 12.5483 145.337 12.9749 145.337 13.4583V20.1389H142.704ZM154.509 20.3386C153.631 20.3386 152.846 20.1093 152.152 19.6506C151.459 19.1919 150.911 18.5261 150.509 17.6531C150.106 16.7801 149.905 15.7197 149.905 14.4719C149.905 13.2092 150.109 12.1439 150.516 11.2758C150.928 10.4028 151.483 9.74444 152.182 9.30055C152.879 8.85166 153.657 8.62728 154.515 8.62728C155.17 8.62728 155.709 8.74069 156.13 8.96763C156.552 9.18958 156.886 9.45833 157.134 9.77402C157.381 10.0847 157.572 10.3782 157.708 10.6544H157.817V4.98737H160.457V20.1389H157.868V18.3485H157.708C157.572 18.6247 157.376 18.9182 157.119 19.2289C156.862 19.5347 156.523 19.7961 156.101 20.0131C155.679 20.2301 155.148 20.3386 154.509 20.3386ZM155.243 18.1414C155.801 18.1414 156.276 17.9885 156.668 17.6827C157.061 17.3719 157.359 16.9404 157.562 16.388C157.766 15.8356 157.868 15.1919 157.868 14.4571C157.868 13.7221 157.766 13.0835 157.562 12.5409C157.364 11.9984 157.068 11.5767 156.675 11.2758C156.287 10.975 155.81 10.8246 155.243 10.8246C154.656 10.8246 154.167 10.9799 153.774 11.2906C153.381 11.6014 153.085 12.0305 152.887 12.5779C152.688 13.1254 152.588 13.7518 152.588 14.4571C152.588 15.1673 152.688 15.8011 152.887 16.3584C153.09 16.9108 153.388 17.3473 153.781 17.6679C154.179 17.9835 154.666 18.1414 155.243 18.1414ZM168.207 20.3608C167.087 20.3608 166.12 20.1241 165.305 19.6506C164.496 19.1722 163.873 18.4964 163.436 17.6235C163 16.7455 162.782 15.7123 162.782 14.5237C162.782 13.3547 163 12.3289 163.436 11.446C163.878 10.5582 164.494 9.8677 165.283 9.37451C166.074 8.87638 167.002 8.62728 168.069 8.62728C168.757 8.62728 169.407 8.74069 170.018 8.96763C170.633 9.18958 171.176 9.53478 171.646 10.0033C172.122 10.4719 172.495 11.0687 172.767 11.7937C173.038 12.5138 173.173 13.372 173.173 14.3683V15.1895H164.018V13.3843H170.651C170.646 12.8714 170.537 12.4151 170.323 12.0157C170.11 11.6112 169.812 11.2931 169.429 11.0613C169.05 10.8295 168.61 10.7136 168.105 10.7136C167.567 10.7136 167.094 10.8467 166.687 11.113C166.28 11.3745 165.962 11.7197 165.734 12.1488C165.511 12.573 165.397 13.0391 165.392 13.5471V15.1229C165.392 15.7838 165.511 16.351 165.749 16.8245C165.986 17.293 166.319 17.6531 166.745 17.9046C167.172 18.1512 167.671 18.2745 168.243 18.2745C168.626 18.2745 168.973 18.2203 169.283 18.1118C169.593 17.9983 169.863 17.8331 170.09 17.6161C170.318 17.3991 170.49 17.1303 170.607 16.8097L173.065 17.0908C172.909 17.7517 172.614 18.3288 172.177 18.822C171.746 19.3103 171.193 19.6901 170.519 19.9613C169.846 20.2276 169.074 20.3608 168.207 20.3608ZM175.401 20.1389V8.77527H178.033V20.1389H175.401ZM176.724 7.16242C176.307 7.16242 175.949 7.02187 175.648 6.74074C175.347 6.45467 175.197 6.1119 175.197 5.71239C175.197 5.30796 175.347 4.96517 175.648 4.68404C175.949 4.39798 176.307 4.25494 176.724 4.25494C177.146 4.25494 177.504 4.39798 177.801 4.68404C178.101 4.96517 178.251 5.30796 178.251 5.71239C178.251 6.1119 178.101 6.45467 177.801 6.74074C177.504 7.02187 177.146 7.16242 176.724 7.16242ZM180.74 20.1389V8.77527H183.293V10.6692H183.409C183.612 10.0132 183.962 9.5077 184.456 9.15256C184.956 8.79249 185.525 8.61249 186.165 8.61249C186.311 8.61249 186.473 8.61985 186.652 8.63464C186.836 8.64458 186.989 8.6618 187.111 8.68645V11.1501C186.999 11.1106 186.822 11.0761 186.58 11.0465C186.342 11.0119 186.112 10.9947 185.889 10.9947C185.409 10.9947 184.977 11.1008 184.595 11.3128C184.216 11.52 183.918 11.8085 183.7 12.1784C183.482 12.5483 183.373 12.9749 183.373 13.4583V20.1389H180.74ZM193.272 20.3608C192.181 20.3608 191.235 20.1167 190.435 19.6284C189.635 19.1401 189.015 18.457 188.574 17.5791C188.137 16.7012 187.919 15.6753 187.919 14.5014C187.919 13.3276 188.137 12.2992 188.574 11.4164C189.015 10.5335 189.635 9.84798 190.435 9.35971C191.235 8.87145 192.181 8.62728 193.272 8.62728C194.362 8.62728 195.308 8.87145 196.108 9.35971C196.907 9.84798 197.526 10.5335 197.962 11.4164C198.403 12.2992 198.624 13.3276 198.624 14.5014C198.624 15.6753 198.403 16.7012 197.962 17.5791C197.526 18.457 196.907 19.1401 196.108 19.6284C195.308 20.1167 194.362 20.3608 193.272 20.3608ZM193.286 18.2153C193.878 18.2153 194.372 18.0501 194.769 17.7196C195.167 17.3843 195.463 16.9355 195.657 16.3732C195.855 15.811 195.955 15.1846 195.955 14.494C195.955 13.7986 195.855 13.1698 195.657 12.6075C195.463 12.0403 195.167 11.589 194.769 11.2537C194.372 10.9183 193.878 10.7505 193.286 10.7505C192.68 10.7505 192.176 10.9183 191.773 11.2537C191.376 11.589 191.078 12.0403 190.879 12.6075C190.685 13.1698 190.588 13.7986 190.588 14.494C190.588 15.1846 190.685 15.811 190.879 16.3732C191.078 16.9355 191.376 17.3843 191.773 17.7196C192.176 18.0501 192.68 18.2153 193.286 18.2153Z" fill="white"/>
</svg>
